<svg width="48" height="48" viewBox="0 0 48 48" fill="none" xmlns="http://www.w3.org/2000/svg">
<rect width="48" height="48" rx="3" fill="url(#paint0_linear_102_50)"/>
<path d="M24 25C25.1046 25 26 24.1046 26 23C26 21.8954 25.1046 21 24 21C22.8954 21 22 21.8954 22 23C22 24.1046 22.8954 25 24 25Z" fill="white"/>
<path d="M37.868 19.504L33.868 12.504C33.8019 12.3884 33.7134 12.2872 33.6077 12.2063C33.502 12.1253 33.3812 12.0663 33.2524 12.0327C33.1236 11.9991 32.9894 11.9915 32.8576 12.0105C32.7258 12.0294 32.5991 12.0745 32.485 12.143L27.723 15H20.277L15.515 12.143C15.4009 12.0744 15.2743 12.0293 15.1426 12.0103C15.0108 11.9913 14.8766 11.9988 14.7478 12.0323C14.619 12.0658 14.4982 12.1247 14.3924 12.2055C14.2867 12.2864 14.1982 12.3875 14.132 12.503L10.132 19.503C10.0021 19.73 9.96625 19.9989 10.0322 20.252C10.0982 20.5051 10.2608 20.7223 10.485 20.857L15.261 23.723L19 30.266V36C19 36.2652 19.1054 36.5196 19.2929 36.7071C19.4804 36.8946 19.7348 37 20 37H28C28.2652 37 28.5196 36.8946 28.7071 36.7071C28.8946 36.5196 29 36.2652 29 36V30.266L32.739 23.723L37.515 20.857C37.739 20.7223 37.9013 20.5053 37.9673 20.2525C38.0333 19.9996 37.9976 19.7309 37.868 19.504ZM26.848 30H21.152L16.576 21.992L19.429 17H28.571L31.424 21.992L26.848 30Z" fill="white"/>
<defs>
<linearGradient id="paint0_linear_102_50" x1="1.5" y1="2" x2="45.5" y2="46" gradientUnits="userSpaceOnUse">
<stop stop-color="#669CEC"/>
<stop offset="1" stop-color="#669CEC" stop-opacity="0.77"/>
</linearGradient>
</defs>
</svg>
