<svg width="48" height="48" viewBox="0 0 48 48" fill="none" xmlns="http://www.w3.org/2000/svg">
<path d="M13.75 36.15C11.5833 36.15 9.75 35.4 8.25 33.9C6.75 32.4 6 30.5667 6 28.4C6 26.2333 6.75 24.4 8.25 22.9C9.75 21.4 11.5833 20.65 13.75 20.65C15.9167 20.65 17.75 21.4 19.25 22.9C20.75 24.4 21.5 26.2333 21.5 28.4C21.5 30.5667 20.75 32.4 19.25 33.9C17.75 35.4 15.9167 36.15 13.75 36.15ZM13.75 33.15C15.0833 33.15 16.2083 32.6917 17.125 31.775C18.0417 30.8583 18.5 29.7333 18.5 28.4C18.5 27.0667 18.0417 25.9417 17.125 25.025C16.2083 24.1083 15.0833 23.65 13.75 23.65C12.4167 23.65 11.2917 24.1083 10.375 25.025C9.45833 25.9417 9 27.0667 9 28.4C9 29.7333 9.45833 30.8583 10.375 31.775C11.2917 32.6917 12.4167 33.15 13.75 33.15ZM33.25 27.5C30.25 27.5 27.7083 26.4583 25.625 24.375C23.5417 22.2917 22.5 19.75 22.5 16.75C22.5 13.75 23.5417 11.2083 25.625 9.125C27.7083 7.04167 30.25 6 33.25 6C36.25 6 38.7917 7.04167 40.875 9.125C42.9583 11.2083 44 13.75 44 16.75C44 19.75 42.9583 22.2917 40.875 24.375C38.7917 26.4583 36.25 27.5 33.25 27.5ZM29.25 42C27.7167 42 26.4167 41.4667 25.35 40.4C24.2833 39.3333 23.75 38.0333 23.75 36.5C23.75 34.9667 24.2833 33.6667 25.35 32.6C26.4167 31.5333 27.7167 31 29.25 31C30.7833 31 32.0833 31.5333 33.15 32.6C34.2167 33.6667 34.75 34.9667 34.75 36.5C34.75 38.0333 34.2167 39.3333 33.15 40.4C32.0833 41.4667 30.7833 42 29.25 42ZM33.25 24.5C35.4167 24.5 37.25 23.75 38.75 22.25C40.25 20.75 41 18.9167 41 16.75C41 14.5833 40.25 12.75 38.75 11.25C37.25 9.75 35.4167 9 33.25 9C31.0833 9 29.25 9.75 27.75 11.25C26.25 12.75 25.5 14.5833 25.5 16.75C25.5 18.9167 26.25 20.75 27.75 22.25C29.25 23.75 31.0833 24.5 33.25 24.5ZM29.25 39C29.95 39 30.5417 38.7583 31.025 38.275C31.5083 37.7917 31.75 37.2 31.75 36.5C31.75 35.8 31.5083 35.2083 31.025 34.725C30.5417 34.2417 29.95 34 29.25 34C28.55 34 27.9583 34.2417 27.475 34.725C26.9917 35.2083 26.75 35.8 26.75 36.5C26.75 37.2 26.9917 37.7917 27.475 38.275C27.9583 38.7583 28.55 39 29.25 39Z" fill="#ECC666"/>
</svg>
